<svg xmlns="http://www.w3.org/2000/svg" width="81.92" height="81.92" viewBox="0 0 81.92 81.92">
  <path id="Shape_9" data-name="Shape 9" d="M797.488,3336.34a78.647,78.647,0,0,0-5.312-17.488,7.527,7.527,0,0,1,2.57-5.664v-2.132a25.537,25.537,0,1,1,30.508,0v2.131a25.185,25.185,0,0,0,2.57,15.947,7.555,7.555,0,0,1-5.312,7.205,12.681,12.681,0,0,1-25.024,0Zm12.512,5.82a7.9,7.9,0,0,0,7.51-5.483H802.49A7.9,7.9,0,0,0,810,3342.159Zm-13.025-13.024a2.745,2.745,0,0,0,2.742,2.741h20.566a2.741,2.741,0,0,0,0-5.483H799.718A2.745,2.745,0,0,0,796.975,3329.135Zm0-10.283a2.745,2.745,0,0,0,2.742,2.742h20.566a2.742,2.742,0,0,0,0-5.484H799.718A2.745,2.745,0,0,0,796.975,3318.852Zm24.012-23.84a2.4,2.4,0,0,1,0,3.394l-3.446,3.447v9.458h2.742c.057,0,.113,0,.17,0v-1.5a2.4,2.4,0,0,1,1.066-2,20.736,20.736,0,1,0-23.038,0,2.4,2.4,0,0,1,1.066,2v1.5c.057,0,.113,0,.171,0h2.741v-9.458l-3.446-3.447a2.4,2.4,0,1,1,3.393-3.394l4.15,4.149a2.4,2.4,0,0,1,.7,1.7v10.454h5.483v-10.454a2.4,2.4,0,0,1,.7-1.7l4.149-4.149a2.4,2.4,0,0,1,3.394,0Zm21.207,16.922-4.452-2.571a2.4,2.4,0,1,1,2.4-4.157l4.452,2.57a2.4,2.4,0,0,1-2.4,4.157Zm-67.667-.878a2.4,2.4,0,0,1,.878-3.279l4.452-2.57a2.4,2.4,0,0,1,2.4,4.157l-4.453,2.571a2.4,2.4,0,0,1-3.278-.878Zm68.891-18.079a2.4,2.4,0,1,1,0-4.8h5.141a2.4,2.4,0,1,1,0,4.8Zm-71.979,0a2.4,2.4,0,0,1,0-4.8h5.142a2.4,2.4,0,1,1,0,4.8Zm65.424-17.91a2.4,2.4,0,0,1,.878-3.279l4.452-2.57a2.4,2.4,0,1,1,2.4,4.156l-4.453,2.572a2.4,2.4,0,0,1-3.278-.879Zm-57,.879-4.453-2.571a2.4,2.4,0,0,1,2.4-4.157l4.452,2.57a2.4,2.4,0,1,1-2.4,4.159Z" transform="translate(-769.04 -3265.039)" fill="#333"/>
</svg>
