<svg xmlns="http://www.w3.org/2000/svg" width="81.92" height="81.92" viewBox="0 0 81.92 81.92">
  <path id="Shape_7" data-name="Shape 7" d="M481.036,3334.962a40.96,40.96,0,1,1,28.964,12A40.691,40.691,0,0,1,481.036,3334.962ZM473.84,3306a36.16,36.16,0,1,0,36.16-36.16A36.2,36.2,0,0,0,473.84,3306Zm14.609,2.359h-.9a2.4,2.4,0,1,1,0-4.8h6.427a2.4,2.4,0,1,1,0,4.8h-.689a16.88,16.88,0,0,0,33.426.02h-.665a2.4,2.4,0,1,1,0-4.8h6.426a2.4,2.4,0,1,1,0,4.8h-.923a21.68,21.68,0,0,1-43.1-.02Zm32-16.5v-2.57a2.4,2.4,0,0,1,4.8,0v2.57a2.4,2.4,0,1,1-4.8,0Zm-25.708,0v-2.57a2.4,2.4,0,0,1,4.8,0v2.57a2.4,2.4,0,1,1-4.8,0Z" transform="translate(-469.04 -3265.039)" fill="#333"/>
</svg>
