<svg xmlns="http://www.w3.org/2000/svg" width="62.4" height="66.56" viewBox="0 0 62.4 66.56">
  <path id="Forma_1" data-name="Forma 1" d="M436.706,2162.03a5.846,5.846,0,0,0-4.356-9.75H430.4V2138.5c0-.006,0-.01,0-.016a2,2,0,0,0-.2-.848l-5.85-11.83a1.95,1.95,0,0,0-3.5,0l-5.85,11.83c-.007.014-.012.029-.018.043a1.957,1.957,0,0,0-.183.81s0,.008,0,.012v6.144c-5.455.59-10.927,2.776-16.637,6.633a5.827,5.827,0,0,1-3.275,1h-3.824a5.859,5.859,0,0,0-5.515-3.9h-7.8a1.95,1.95,0,0,0-1.95,1.95v31.2a1.95,1.95,0,0,0,1.95,1.95h17.7a9.688,9.688,0,0,1,2.978.495,70.166,70.166,0,0,0,16.649,3.229,5.86,5.86,0,0,0,5.574,4.076h3.9a5.859,5.859,0,0,0,5.515-3.9h2.285a90.856,90.856,0,0,1,5.85-21.45A5.825,5.825,0,0,0,436.706,2162.03ZM387.5,2179.58h-7.8v-27.3h5.85a1.952,1.952,0,0,1,1.95,1.95Zm35.1-48.511,3.267,6.607a8.564,8.564,0,0,1-6.535,0Zm-3.9,10.53a12.416,12.416,0,0,0,7.8,0v3.216a5.826,5.826,0,0,0-1.95-.335H418.7Zm-9.75,26.28a1.95,1.95,0,0,0,0,3.9,13.569,13.569,0,0,0,5.85-1.319v12.812a66.263,66.263,0,0,1-15.173-3.009,13.572,13.572,0,0,0-4.178-.684H391.4v-23.4h3.488a9.715,9.715,0,0,0,5.458-1.671c6.1-4.124,11.825-6.129,17.491-6.129h6.712a1.952,1.952,0,0,1,1.95,1.95v17.55h-1.95a1.952,1.952,0,0,1-1.95-1.95v-11.7a1.95,1.95,0,1,0-3.9,0v3.9A9.761,9.761,0,0,1,408.95,2167.88Zm15.144,9.75a5.858,5.858,0,0,0-1.159,1.95H418.7v-11.907c.068-.07.136-.14.2-.211a4.4,4.4,0,0,1,3.7,6.268A5.827,5.827,0,0,0,424.094,2177.63Zm.456,9.75h-3.9a1.952,1.952,0,0,1-1.95-1.95v-1.95h4.235a5.882,5.882,0,0,0,2.993,3.328A1.944,1.944,0,0,1,424.55,2187.38Zm7.8-3.9h-3.9a1.95,1.95,0,1,1,0-3.9h3.9a1.95,1.95,0,1,1,0,3.9Zm0-7.8h-3.9a1.95,1.95,0,1,1,0-3.9h3.9a1.95,1.95,0,1,1,0,3.9Zm0-7.8H430.4v-3.9h1.95a1.95,1.95,0,1,1,0,3.9Zm0-7.8H430.4v-3.9h1.95a1.95,1.95,0,1,1,0,3.9Z" transform="translate(-375.8 -2124.72)" fill="#6275ff"/>
</svg>
