<svg xmlns="http://www.w3.org/2000/svg" width="66.56" height="66.56" viewBox="0 0 66.56 66.56">
  <path id="Forma_1" data-name="Forma 1" d="M838.66,2155.4v-1.145a29.38,29.38,0,0,0-58.76,0v1.145a12.04,12.04,0,0,0-3.9,8.865,11.713,11.713,0,0,0,11.7,11.7h5.85a5.856,5.856,0,0,0,5.85-5.85v-11.96a5.857,5.857,0,0,0-5.85-5.85h-1.841a17.695,17.695,0,0,1,35.141,0H825.01a5.857,5.857,0,0,0-5.85,5.85v11.96a5.856,5.856,0,0,0,5.85,5.85h1.95v1.95a5.857,5.857,0,0,1-5.85,5.85h-2.285a5.86,5.86,0,0,0-5.515-3.9h-4.16a5.85,5.85,0,0,0,0,11.7h4.16a5.859,5.859,0,0,0,5.515-3.9h2.285a9.761,9.761,0,0,0,9.75-9.75v-1.95a11.713,11.713,0,0,0,11.7-11.7A12.04,12.04,0,0,0,838.66,2155.4Zm-25.35,32.265h-4.16a1.95,1.95,0,0,1,0-3.9h4.16a1.95,1.95,0,0,1,0,3.9Zm-25.61-15.6a7.809,7.809,0,0,1-7.8-7.8,8.04,8.04,0,0,1,7.8-8.06Zm5.85-15.86a1.952,1.952,0,0,1,1.95,1.95v11.96a1.952,1.952,0,0,1-1.95,1.95H791.6V2156.2Zm33.41,15.86h-1.95a1.952,1.952,0,0,1-1.95-1.95v-11.96a1.952,1.952,0,0,1,1.95-1.95h1.95Zm3.809-19.76a21.7,21.7,0,0,0-21.619-19.5,21.479,21.479,0,0,0-21.36,19.5h-.09a11.293,11.293,0,0,0-3.868.681,25.487,25.487,0,0,1,50.9,0,11.291,11.291,0,0,0-3.868-.681Zm.091,19.76V2156.2a8.04,8.04,0,0,1,7.8,8.06A7.809,7.809,0,0,1,830.86,2172.06Z" transform="translate(-776 -2125)" fill="#6275ff"/>
</svg>
