<svg xmlns="http://www.w3.org/2000/svg" width="66.56" height="66.561" viewBox="0 0 66.56 66.561">
  <path id="Forma_1" data-name="Forma 1" d="M805.38,2413.56a1.95,1.95,0,0,1-1.754-1.1l-1.922-3.952a28.988,28.988,0,0,1-7.034-2.92l-4.078,1.359a1.949,1.949,0,0,1-2-.472l-5.515-5.515a1.95,1.95,0,0,1-.472-2l1.359-4.078a29.038,29.038,0,0,1-2.92-7.033l-3.952-1.922a1.949,1.949,0,0,1-1.1-1.753v-7.8a1.948,1.948,0,0,1,1.1-1.753l3.952-1.922a29.011,29.011,0,0,1,2.921-7.034l-1.36-4.078a1.95,1.95,0,0,1,.472-2l5.515-5.515a1.949,1.949,0,0,1,2-.471l4.078,1.359a29.023,29.023,0,0,1,7.033-2.921l1.922-3.951a1.951,1.951,0,0,1,1.754-1.1h7.8a1.952,1.952,0,0,1,1.754,1.1l1.922,3.951a29.038,29.038,0,0,1,7.034,2.921l4.078-1.359a1.949,1.949,0,0,1,2,.471l5.515,5.515a1.95,1.95,0,0,1,.471,2l-1.359,4.078a29.011,29.011,0,0,1,2.921,7.034l3.952,1.922a1.948,1.948,0,0,1,1.1,1.753v7.8a1.949,1.949,0,0,1-1.1,1.753l-3.952,1.922a29.011,29.011,0,0,1-2.921,7.034l1.359,4.077a1.949,1.949,0,0,1-.471,2l-5.515,5.516a1.949,1.949,0,0,1-2,.471l-4.078-1.359a29,29,0,0,1-7.034,2.92l-1.922,3.952a1.951,1.951,0,0,1-1.754,1.1Zm-9.446-11.76a25.135,25.135,0,0,0,7.57,3.142,1.951,1.951,0,0,1,1.31,1.046l1.786,3.672h5.36l1.786-3.672a1.951,1.951,0,0,1,1.31-1.046,25.15,25.15,0,0,0,7.571-3.142,1.95,1.95,0,0,1,1.646-.193l3.784,1.262,3.811-3.812-1.262-3.784a1.953,1.953,0,0,1,.194-1.646,25.145,25.145,0,0,0,3.141-7.57,1.947,1.947,0,0,1,1.046-1.31l3.672-1.787V2377.6l-3.672-1.787a1.948,1.948,0,0,1-1.046-1.31,25.139,25.139,0,0,0-3.142-7.57,1.95,1.95,0,0,1-.193-1.646l1.262-3.785-3.811-3.811-3.785,1.262a1.954,1.954,0,0,1-1.646-.193,25.142,25.142,0,0,0-7.57-3.142,1.95,1.95,0,0,1-1.31-1.046l-1.786-3.672H806.6l-1.786,3.672a1.95,1.95,0,0,1-1.31,1.046,25.141,25.141,0,0,0-7.57,3.142,1.956,1.956,0,0,1-1.647.193l-3.784-1.262-3.811,3.812,1.262,3.784a1.954,1.954,0,0,1-.194,1.646,25.136,25.136,0,0,0-3.141,7.57,1.949,1.949,0,0,1-1.046,1.31L779.9,2377.6v5.359l3.672,1.787a1.952,1.952,0,0,1,1.046,1.31,25.13,25.13,0,0,0,3.141,7.57,1.951,1.951,0,0,1,.194,1.646l-1.262,3.784,3.811,3.812,3.785-1.262a1.949,1.949,0,0,1,1.646.193Zm-8.1-21.52a21.45,21.45,0,1,1,21.45,21.45A21.474,21.474,0,0,1,787.83,2380.281Zm17.55,17.112a17.6,17.6,0,0,0,7.8,0V2386.13h-7.8Zm5.644-25.784,5.85,11.7a2.026,2.026,0,0,1,.206.872V2396a17.55,17.55,0,1,0-15.6,0V2384.18a2,2,0,0,1,.187-.83c.006-.014.012-.029.019-.042l5.85-11.7a1.95,1.95,0,0,1,3.488,0Zm-4.439,10.622h5.389l-2.695-5.389Z" transform="translate(-776 -2347)" fill="#6275ff"/>
</svg>
