<svg xmlns="http://www.w3.org/2000/svg" width="60.648" height="81.92" viewBox="0 0 60.648 81.92">
  <path id="Shape_10" data-name="Shape 10" d="M1379.513,3316.97a30,30,0,0,1,14.4-25.61,2.4,2.4,0,0,1,.778-4.306l-13.373-13.375c-2.618-2.617-2.278-4.773-1.842-5.825s1.72-2.816,5.422-2.816h49.2c3.7,0,4.986,1.764,5.422,2.816s.776,3.208-1.842,5.825l-13.373,13.374a2.4,2.4,0,0,1,.778,4.306,29.985,29.985,0,1,1-45.574,25.61Zm4.8,0a25.187,25.187,0,1,0,25.187-25.189A25.216,25.216,0,0,0,1384.313,3316.97Zm25.351-33.448-2.27,2.27v0l-1.189,1.187h11.389l16.694-16.694a5.534,5.534,0,0,0,.381-.42,5.181,5.181,0,0,0-.567-.027h-10.755Zm-25.333-13.656a5.555,5.555,0,0,0,.381.42l15.7,15.7,5.7-5.7-10.453-10.452H1384.9A5.181,5.181,0,0,0,1384.331,3269.867Zm25.169,7.031,7.059-7.059h-14.117Zm10.04,56.382a2.4,2.4,0,0,1-1.117-.276l-8.923-4.692-8.924,4.692a2.4,2.4,0,0,1-3.481-2.53l1.7-9.937-7.219-7.038a2.4,2.4,0,0,1,1.329-4.094l9.977-1.449,4.462-9.042a2.4,2.4,0,0,1,4.3,0l4.462,9.042,9.977,1.449a2.4,2.4,0,0,1,1.33,4.094l-7.219,7.038,1.681,9.806a2.4,2.4,0,0,1-2.335,2.937Zm-8.923-9.8,5.737,3.016-1.1-6.388a2.4,2.4,0,0,1,.69-2.124l4.64-4.523-6.412-.931a2.4,2.4,0,0,1-1.807-1.314l-2.868-5.811-2.868,5.811a2.4,2.4,0,0,1-1.806,1.314l-6.413.931,4.64,4.523a2.4,2.4,0,0,1,.69,2.124l-1.1,6.388,5.737-3.016a2.4,2.4,0,0,1,2.234,0Z" transform="translate(-1379.176 -3265.039)" fill="#333"/>
</svg>
